<svg width="56" height="56" viewBox="0 0 56 56" fill="none" xmlns="http://www.w3.org/2000/svg">
<g clip-path="url(#clip0)">
<path d="M28 56C20.5209 56 13.4895 53.0875 8.20094 47.7991C2.91255 42.5105 0 35.4791 0 28C0 20.5209 2.91255 13.4895 8.20094 8.20094C13.4895 2.91255 20.5209 0 28 0C35.4791 0 42.5105 2.91255 47.7991 8.20094C53.0875 13.4895 56 20.5209 56 28C56 35.4791 53.0875 42.5105 47.7991 47.7991C42.5105 53.0875 35.4791 56 28 56ZM28 4.375C14.9731 4.375 4.375 14.9731 4.375 28C4.375 41.0269 14.9731 51.625 28 51.625C41.0269 51.625 51.625 41.0269 51.625 28C51.625 14.9731 41.0269 4.375 28 4.375ZM27.8906 30.0781C22.1009 30.0781 17.3906 25.3679 17.3906 19.5781C17.3906 13.7884 22.1009 9.07812 27.8906 9.07812C33.6804 9.07812 38.3906 13.7884 38.3906 19.5781C38.3906 25.3679 33.6804 30.0781 27.8906 30.0781ZM27.8906 13.4531C24.5132 13.4531 21.7656 16.2008 21.7656 19.5781C21.7656 22.9554 24.5132 25.7031 27.8906 25.7031C31.268 25.7031 34.0156 22.9554 34.0156 19.5781C34.0156 16.2008 31.268 13.4531 27.8906 13.4531ZM41.7498 42.8172C42.6845 42.0517 42.8215 40.6735 42.056 39.7388C38.9628 35.9626 34.3923 33.7969 29.5165 33.7969H26.921C22.0452 33.7969 17.4747 35.9626 14.3816 39.7389C13.6161 40.6735 13.7531 42.0517 14.6879 42.8174C15.6225 43.583 17.0007 43.4457 17.7663 42.5112C20.0249 39.7534 23.3617 38.1719 26.921 38.1719H29.5165C33.0758 38.1719 36.4126 39.7534 38.6713 42.5111C39.1039 43.0391 39.7317 43.3125 40.3648 43.3125C40.8525 43.3125 41.3432 43.1503 41.7498 42.8172Z" fill="white"/>
</g>
<defs>
<clipPath id="clip0">
<rect width="56" height="56" fill="white"/>
</clipPath>
</defs>
</svg>
