<svg width="56" height="56" viewBox="0 0 56 56" fill="none" xmlns="http://www.w3.org/2000/svg">
<path d="M47.8832 7.33591C43.1523 2.60496 36.8619 -0.000264604 30.1717 2.01573e-08C29.0754 2.01573e-08 28.187 0.888607 28.187 1.98468C28.187 3.08075 29.0756 3.96936 30.1717 3.96936C35.8018 3.9691 41.0951 6.16151 45.0764 10.1428C49.0579 14.124 51.2503 19.4176 51.2501 25.048C51.2501 26.1441 52.1384 27.0327 53.2347 27.0327C54.3308 27.0327 55.2194 26.1441 55.2194 25.0483C55.2197 18.3572 52.6145 12.0669 47.8832 7.33591Z" fill="white"/>
<path d="M39.7191 25.0482C39.7191 26.1443 40.6077 27.0329 41.704 27.0326C42.8001 27.0326 43.6884 26.144 43.6884 25.048C43.6879 17.5962 37.6243 11.5328 30.172 11.5318C30.1717 11.5318 30.172 11.5318 30.1717 11.5318C29.0756 11.5318 28.1873 12.4201 28.187 13.5162C28.187 14.6123 29.0754 15.5009 30.1714 15.5011C35.4356 15.5019 39.7185 19.7846 39.7191 25.0482Z" fill="white"/>
<path d="M35.3273 35.1675C32.3021 35.0108 30.761 37.2606 30.0219 38.3414C29.4029 39.2461 29.6347 40.4811 30.5395 41.1001C31.4442 41.719 32.6792 41.4872 33.2982 40.5825C34.1715 39.3056 34.5671 39.1048 35.1037 39.1302C36.8214 39.3321 43.5865 44.2896 44.2639 45.8397C44.4338 46.2962 44.4275 46.7437 44.2452 47.288C43.5349 49.396 42.3592 50.8774 40.8445 51.5718C39.4054 52.2315 37.6412 52.1717 35.7436 51.3995C28.6577 48.5114 22.4671 44.4809 17.344 39.4197C17.3419 39.4176 17.3398 39.4157 17.3379 39.4136C12.2873 34.2955 8.26423 28.1129 5.38088 21.0379C4.60845 19.1387 4.54864 17.3741 5.20835 15.9354C5.90272 14.4207 7.38409 13.245 9.49023 12.5355C10.0364 12.3524 10.4831 12.3466 10.9353 12.5149C12.4911 13.1947 17.4483 19.9595 17.6483 21.6579C17.6769 22.2146 17.4745 22.61 16.1987 23.4817C15.2937 24.0998 15.0611 25.3348 15.6795 26.2398C16.2977 27.1449 17.5324 27.3772 18.4377 26.759C19.519 26.0207 21.7683 24.4838 21.6121 21.4483C21.4401 18.2776 15.2723 9.88079 12.3251 8.79716C11.0145 8.30866 9.63577 8.30019 8.22586 8.77334C5.05354 9.84163 2.76243 11.7464 1.6002 14.2815C0.472902 16.7409 0.508626 19.5943 1.70473 22.5348C4.79051 30.1063 9.10785 36.7311 14.5366 42.226C14.5498 42.2395 14.5633 42.2528 14.5771 42.2657C20.068 47.6844 26.6852 51.9938 34.2466 55.0759C35.7608 55.6917 37.2519 56 38.678 56C40.0207 56 41.3062 55.7269 42.4986 55.1802C45.034 54.0182 46.9385 51.7274 48.0076 48.5529C48.4797 47.1457 48.472 45.7675 47.9872 44.4629C46.8999 41.5079 38.5031 35.34 35.3273 35.1675Z" fill="white"/>
</svg>
