<svg width="56" height="56" viewBox="0 0 56 56" fill="none" xmlns="http://www.w3.org/2000/svg">
<path d="M54.3696 9.95355C54.3662 9.95355 54.3628 9.95312 54.3594 9.95312H39.4844V8.3125C39.4844 5.59863 37.2764 3.39062 34.5625 3.39062H21.4375C18.7236 3.39062 16.5156 5.59863 16.5156 8.3125V9.95312H1.64062C0.727173 9.95312 0 10.7017 0 11.5938V47.6875C0 50.4014 2.20801 52.6094 4.92188 52.6094H51.0781C53.792 52.6094 56 50.4014 56 47.6875V11.6284C56 11.6262 56 11.6241 56 11.6219C55.9372 10.5444 55.2745 9.95953 54.3696 9.95355ZM19.7969 8.3125C19.7969 7.40802 20.533 6.67188 21.4375 6.67188H34.5625C35.467 6.67188 36.2031 7.40802 36.2031 8.3125V9.95312H19.7969V8.3125ZM52.083 13.2344L46.9881 28.5187C46.7646 29.1899 46.1392 29.6406 45.4321 29.6406H36.2031V28C36.2031 27.0938 35.4687 26.3594 34.5625 26.3594H21.4375C20.5313 26.3594 19.7969 27.0938 19.7969 28V29.6406H10.5679C9.86084 29.6406 9.23535 29.1899 9.0119 28.5187L3.91699 13.2344H52.083ZM32.9219 29.6406V32.9219H23.0781V29.6406H32.9219ZM52.7188 47.6875C52.7188 48.592 51.9826 49.3281 51.0781 49.3281H4.92188C4.0174 49.3281 3.28125 48.592 3.28125 47.6875V21.7037L5.89899 29.5565C6.56976 31.5696 8.44623 32.9219 10.5679 32.9219H19.7969V34.5625C19.7969 35.4687 20.5313 36.2031 21.4375 36.2031H34.5625C35.4687 36.2031 36.2031 35.4687 36.2031 34.5625V32.9219H45.4321C47.5538 32.9219 49.4302 31.5696 50.101 29.5565L52.7188 21.7037V47.6875Z" fill="white"/>
</svg>
